HIERARCHY
ROOT simHips
{
  OFFSET -17.1045 97.9264 -0.496699
  CHANNELS 6 Xposition Yposition Zposition Zrotation Xrotation Yrotation
  JOINT simSpine
  {
    OFFSET -0.000355721 21.3001 -0.016921
    CHANNELS 3 Zrotation Xrotation Yrotation
    JOINT simLeftArm
    {
      OFFSET 13.5181 21.3012 0
      CHANNELS 3 Zrotation Xrotation Yrotation
      JOINT simLeftForeArm
      {
        OFFSET 24.5783 0 0
        CHANNELS 3 Zrotation Xrotation Yrotation
        JOINT simLeftHand
        {
          OFFSET 24.5783 0 0
          CHANNELS 3 Zrotation Xrotation Yrotation
          End Site
          {
            OFFSET 7.32568 1.52588e-005 0.0169305
          }
        }
      }
    }
    JOINT simHead
    {
      OFFSET 0 27.4458 -0.00489235
      CHANNELS 3 Zrotation Xrotation Yrotation
      End Site
      {
        OFFSET 0 0 0
      }
    }
    JOINT simRightArm
    {
      OFFSET -13.5174 21.3012 0
      CHANNELS 3 Zrotation Xrotation Yrotation
      JOINT simRightForeArm
      {
        OFFSET -24.5783 0 0
        CHANNELS 3 Zrotation Xrotation Yrotation
        JOINT simRightHand
        {
          OFFSET -24.5783 0 0
          CHANNELS 3 Zrotation Xrotation Yrotation
          End Site
          {
            OFFSET -7.32568 1.52588e-005 0.0169305
          }
        }
      }
    }
  }
  JOINT simRightUpLeg
  {
    OFFSET -8.44614 -9.41038 0.835684
    CHANNELS 3 Zrotation Xrotation Yrotation
    JOINT simRightLeg
    {
      OFFSET 0 -40.9639 0
      CHANNELS 3 Zrotation Xrotation Yrotation
      JOINT simRightFoot
      {
        OFFSET 0 -40.9639 0
        CHANNELS 3 Zrotation Xrotation Yrotation
        End Site
        {
          OFFSET 0.50614 -9.67405 14.6709
        }
      }
    }
  }
  JOINT simLeftUpLeg
  {
    OFFSET 8.44614 -9.41038 0.835684
    CHANNELS 3 Zrotation Xrotation Yrotation
    JOINT simLeftLeg
    {
      OFFSET 0 -40.9639 0
      CHANNELS 3 Zrotation Xrotation Yrotation
      JOINT simLeftFoot
      {
        OFFSET 0 -40.9639 0
        CHANNELS 3 Zrotation Xrotation Yrotation
        End Site
        {
          OFFSET -0.50614 -9.67405 14.6709
        }
      }
    }
  }
}
MOTION
Frames:	24
Frame Time:	0.0333333
43.1347 94.632 -29.3002 1.80354 -2.33221 47.4048 -14.2765 13.7788 7.76174 -46.9376 21.3808 6.64825 -0.340009 -7.29173 -64.7879 11.2726 3.16787 -35.1551 7.09285 -1.59214 2.6763 56.7484 34.6126 31.6969 12.3265 -4.71084 94.9941 -4.06232 0.990515 26.991 14.0067 5.48903 -15.6761 9.04836 32.9317 -10.5828 -13.6932 6.10574 19.7073 2.44176 -31.2428 0.55506 -1.33743 27.8366 -5.44964 -11.8023 0.325461 2.54509 
45.1203 94.9381 -23.5023 2.10923 -2.91115 51.5017 -15.7886 13.3114 7.84687 -45.2663 19.5235 6.6638 -0.201697 -6.97003 -62.9932 9.60762 2.80773 -32.9107 7.92494 -0.217808 1.28343 54.8698 35.8462 31.8596 13.8163 -6.18867 92.5652 -5.49054 2.96282 26.4058 12.0223 5.24256 -17.6613 12.982 38.2165 -12.8176 -17.292 11.2206 31.0236 0.194961 -27.3332 5.85958 -3.29685 17.9559 -5.52981 -16.4955 3.33309 -2.01929 
46.7989 94.3408 -17.6557 3.06551 -3.99812 55.1479 -15.3628 14.024 7.33799 -45.3518 18.5527 4.47191 0.0627947 -6.22043 -59.3015 7.74487 2.27704 -30.6866 7.27866 -0.0386793 0.471011 51.7768 35.6895 31.5077 14.8162 -7.33732 88.0658 -7.43336 5.28057 26.4823 10.1425 2.02323 -19.0359 15.6838 49.5421 -16.3719 -24.0628 10.2316 41.7277 -0.843176 -25.652 10.5103 -5.1801 19.0633 -3.71589 -15.3152 9.2205 -1.67404 
48.3675 92.7342 -12.1259 5.2413 -4.95087 58.8395 -14.4437 16.7826 6.64461 -46.2154 18.3748 -0.270799 -0.58921 -5.36573 -54.4084 4.89138 1.24178 -28.3755 6.13936 -1.44592 0.154948 47.6887 33.3863 30.9886 14.7854 -7.36179 81.8594 -9.5023 7.62988 26.8819 6.19991 -1.279 -19.3309 23.5799 62.4193 -23.9867 -25.0779 5.15634 43.4305 -1.8182 -24.5648 12.7747 -6.3774 26.5226 -1.28105 3.51917 5.55302 -6.26186 
49.5822 90.8095 -7.15624 7.63429 -5.3643 62.3068 -13.5163 20.9737 5.60531 -46.6761 18.9485 -8.14007 -0.78832 -4.09158 -47.8504 3.41273 0.659768 -27.0524 4.96739 -3.1469 0.718701 43.3878 28.1105 31.461 14.4348 -5.72607 73.4149 -8.92039 8.28135 25.2761 0.298683 -4.94291 -18.9171 43.3109 73.0891 -43.4488 -25.8753 1.90388 39.9349 -3.21042 -25.6288 12.1922 -5.61658 36.5677 1.26054 15.3571 -1.04478 -3.24378 
50.2401 89.5899 -2.57028 8.79145 -5.18056 64.8208 -12.0091 25.7815 5.38838 -45.8814 19.7881 -21.025 -0.577218 -1.45926 -37.2506 4.12082 1.17296 -25.0391 2.85991 -5.17507 1.05292 40.6269 20.5058 32.2527 13.4403 -2.94932 63.293 -7.60799 7.89333 23.2175 -6.33264 -11.1022 -17.582 78.6089 78.1942 -77.0849 -26.2086 1.68439 33.335 -6.52028 -29.1297 5.48293 1.86604 47.3358 -3.84463 13.2542 -4.83752 1.37131 
50.4406 88.472 1.95573 8.32549 -4.58648 67.4075 -7.84699 26.3168 5.42299 -46.8155 22.9367 -33.6768 -0.497032 2.48356 -25.3756 4.38328 1.98221 -21.3837 -1.0937 -5.27925 -1.16191 39.3491 16.1307 27.5269 11.9809 -1.42814 57.9522 -7.999 7.8248 23.014 -12.7866 -18.7073 -17.3017 108.05 79.1177 -103.496 -21.055 1.83866 22.6073 -7.61552 -33.3847 1.19216 8.10711 55.735 -10.2986 9.71735 -6.0574 2.59614 
50.37 87.9621 6.61395 7.93562 -4.47548 68.159 -6.74974 27.9428 6.18914 -46.1876 24.6359 -41.4114 3.52581 6.28467 -23.9611 6.25943 3.71743 -21.775 -2.73257 -6.35895 -2.44617 39.5697 11.7618 24.7744 15.4614 -3.08017 59.0772 -4.96503 5.11087 21.2351 -17.9394 -25.1691 -17.5758 114.038 81.9694 -107.23 -13.9801 3.36811 10.5212 -2.29161 -34.8049 2.46833 3.30816 59.8981 -8.27862 10.3918 -7.96921 2.97126 
50.4689 87.4855 11.2589 7.22298 -4.12791 69.2665 -6.09457 27.5107 5.50576 -45.722 26.2643 -42.9684 5.3736 4.14767 -31.0273 9.74058 4.36733 -25.8393 -3.41215 -5.23552 -3.47871 40.8699 10.1709 22.136 16.5973 -4.49288 63.873 -4.28531 4.18268 21.2372 -23.1335 -29.3224 -17.6168 69.5202 84.0424 -61.3522 -6.6895 2.22975 -1.07834 2.37234 -35.9173 3.32919 -0.61943 62.6667 -6.77331 10.2812 -9.94369 2.82753 
50.46 87.3236 15.9739 6.25858 -3.56367 71.1557 -5.31561 25.7984 4.35673 -45.0818 27.6838 -42.7561 3.19997 -0.97564 -39.9365 10.3724 3.26482 -28.3652 -3.3514 -3.74514 -4.35848 42.7283 9.51859 19.4358 15.8858 -5.39254 69.2148 -4.02924 3.64518 21.9953 -26.001 -31.3236 -17.2825 12.3682 79.2721 -7.24519 -4.76271 -1.83559 -5.8146 5.16503 -37.1952 2.98517 -1.17256 64.0197 -7.38687 9.62784 -9.76756 2.92962 
50.905 87.6113 21.1251 5.21005 -3.14069 72.5602 -5.68323 24.1959 4.65517 -42.9748 29.1999 -42.9141 1.80287 -5.11383 -48.9506 9.66915 2.02484 -29.8384 -1.91297 -3.23604 -4.06363 44.6717 8.94387 18.2126 15.6059 -6.06639 73.568 -4.37653 3.38909 23.3935 -25.7005 -30.3417 -14.0814 -4.70662 69.1342 6.33635 -2.60879 -2.96358 -4.76031 6.66931 -37.3305 -0.145814 1.16405 64.1865 -10.6246 5.31785 -10.6224 3.18917 
50.7185 88.1224 26.5327 3.92243 -2.37216 75.7784 -6.01159 22.0376 4.22045 -40.615 31.5545 -43.1711 1.89936 -7.90958 -56.5894 7.7648 0.558997 -31.3342 -0.385485 -2.86088 -4.18307 46.6475 8.08492 17.6037 14.9291 -6.34795 76.5335 -4.12523 2.848 24.0158 -25.1601 -27.8274 -9.68766 -5.86181 60.3322 6.02329 -1.14328 1.25106 -3.46352 8.45595 -37.2633 -2.34253 1.72428 61.3939 -11.8703 3.56951 -10.0846 2.77043 
50.1209 88.7967 32.3059 2.70523 -1.4841 80.1741 -7.24019 19.2132 4.43602 -38.0182 34.4881 -43.3823 3.32577 -9.44928 -62.1432 6.96485 -0.272438 -33.195 1.44635 -2.2198 -4.40756 48.7617 7.65241 16.7392 14.6504 -6.49517 78.4896 -4.49222 2.69016 24.3243 -23.4039 -24.8783 -5.5438 -6.09323 54.8276 5.25466 -1.9711 3.81015 -2.57554 9.78906 -36.777 -5.25521 2.84303 56.2973 -13.7424 0.659678 -8.66896 1.52555 
49.0855 89.5341 38.3373 1.56097 -0.718763 84.5782 -9.33682 16.2129 5.32568 -35.768 36.2819 -42.0293 5.9248 -10.3145 -66.9475 7.10205 -0.594463 -34.6222 2.51609 -1.96049 -4.09644 51.0752 7.89483 16.1222 14.2861 -6.56449 80.27 -5.40073 2.87118 25.3873 -20.9155 -22.7034 -2.49901 -5.45538 53.5375 5.58291 0.763079 0.113054 -1.19701 11.1912 -35.7883 -8.44935 3.51189 49.142 -14.7123 -2.77457 -5.631 0.946793 
47.4588 90.6068 44.3478 1.62486 -0.383086 87.1243 -13.0687 16.6552 6.96179 -33.7667 33.1888 -39.3855 7.91468 -10.7519 -70.5631 7.43771 -0.834212 -36.1896 3.50089 -4.07531 -0.804785 52.8538 7.89264 19.3609 13.4713 -6.51219 82.4628 -6.03447 2.97195 26.2111 -18.1467 -21.283 -3.33349 -3.41579 52.7428 4.02454 1.93806 -3.38958 -2.52193 13.3784 -32.6561 -10.7899 3.25759 40.089 -13.7454 -5.28629 0.562257 2.99698 
44.9809 91.3803 49.9498 1.14167 -0.000881892 90.9464 -15.816 15.6453 6.78497 -31.8952 29.8183 -35.7741 7.7969 -10.9608 -72.893 6.87287 -1.22445 -36.5545 3.37863 -4.75662 3.82309 53.2265 8.8479 21.5876 12.5814 -6.44006 85.4241 -6.49894 3.09047 26.8534 -16.732 -20.8455 -7.09977 0.483302 51.6619 0.115076 -0.139907 -7.04621 -4.54294 15.8574 -31.0756 -6.87214 0.642389 29.3198 -9.40983 -2.9531 11.399 7.13456 
42.9164 92.5404 54.8395 1.27083 0.153641 93.2513 -17.9997 15.5776 6.85096 -30.4914 25.5124 -32.3788 7.08405 -10.9355 -72.8553 6.32177 -1.30886 -35.9205 2.83747 -4.9339 10.3995 51.588 10.4469 23.9874 12.4888 -6.50349 88.449 -6.97738 3.42841 27.4178 -13.3325 -19.2725 -8.56165 0.27639 48.0206 -0.533341 -1.49608 -9.16686 -5.86734 15.7853 -28.6837 -2.6474 -0.610346 23.8865 -5.64897 -3.06669 11.391 10.3672 
40.6904 94.3016 59.1284 1.08735 0.255891 95.2888 -18.445 15.6908 6.89598 -30.6587 22.7581 -30.2769 6.83372 -10.6563 -70.7201 5.39901 -1.36465 -35.172 1.22394 -5.20948 15.9886 49.069 11.9573 24.3669 12.9113 -6.74351 91.3005 -7.04529 3.71467 27.3643 -8.90486 -18.8593 -8.52916 -2.45256 43.821 0.364968 -1.6593 -6.8148 -7.602 15.0127 -28.0391 -0.354073 -4.35956 25.8435 -5.98223 -3.7065 6.87385 4.67013 
38.2326 96.749 62.8095 0.469469 0.306984 97.626 -18.403 15.9811 6.73168 -30.4917 22.3124 -29.3191 5.00446 -10.4882 -69.0943 4.72838 -1.52151 -34.8042 0.0434757 -5.70869 20.7178 47.1512 14.1217 22.885 13.5359 -7.30357 93.2374 -7.74764 4.63096 27.2972 -6.91815 -18.0827 -9.88455 -1.439 37.5628 -0.703757 -1.67068 -1.18104 -7.96301 11.9485 -28.1392 0.645622 -7.55709 30.3298 -5.56006 -4.48473 5.00482 3.0893 
35.5161 99.4123 66.1877 -0.828062 0.224024 99.5691 -18.6783 15.6353 6.84558 -28.5095 24.3214 -28.8926 3.58508 -10.5642 -70.1143 4.45443 -1.59128 -35.0249 -0.139939 -6.6511 24.0639 46.88 17.0732 20.1134 14.3294 -8.09969 94.4392 -8.1253 5.41634 27.4723 -6.93575 -17.4604 -11.6144 1.14586 30.1465 -0.649977 0.995107 6.6413 -5.93185 8.77158 -27.8682 1.86203 -11.8078 34.365 -2.4886 -6.30811 3.72977 6.32403 
32.6972 101.791 69.4862 -2.41654 0.0244758 100.55 -19.6927 14.8166 7.61523 -25.0143 27.6945 -28.5076 2.64986 -10.7636 -73.077 4.12803 -1.5634 -35.1986 0.561725 -7.91699 26.1788 48.7455 20.1317 16.9197 14.6267 -8.89495 95.077 -9.14928 6.45358 28.6008 -8.21466 -17.2295 -12.2296 3.36224 23.3642 2.3841 9.93917 13.9513 -1.64342 6.9588 -26.8782 3.42628 -17.9104 36.9608 2.80064 -7.72321 2.47872 10.8047 
30.022 103.388 72.7096 -3.84791 -0.209648 101.287 -20.62 14.2403 8.48737 -21.2578 31.3014 -27.8452 0.824697 -11.1236 -77.327 2.92189 -1.80423 -35.3757 1.03477 -9.27923 27.4319 51.4852 21.9105 14.3313 14.3488 -9.39859 95.1809 -9.92132 7.19301 29.6036 -10.5449 -16.3764 -10.4453 4.6696 18.3296 6.92534 14.0971 15.3823 7.07607 5.54818 -25.8371 4.06208 -23.2562 38.3213 7.32356 -5.27931 6.30788 11.1813 
27.6554 103.849 75.838 -4.03837 -0.416601 102.771 -20.5719 14.2612 9.22773 -18.9917 35.4117 -26.4715 -1.62601 -11.5428 -82.1619 0.400875 -2.52503 -35.509 0.90729 -9.36768 28.222 53.337 22.4014 12.4779 14.166 -9.52514 94.4102 -10.3822 7.60552 29.9528 -12.5586 -16.3851 -8.23653 4.22303 23.3067 7.33603 11.1016 12.4444 9.57992 3.76288 -24.0123 3.09471 -26.0744 39.1008 9.34479 -3.34381 10.1681 8.48453 
25.4472 103.092 78.7288 -3.32205 -0.654472 105.539 -19.4741 14.4485 9.40836 -19.0811 39.8971 -24.2513 -2.58865 -11.9286 -85.8963 0.394057 -2.30166 -36.5024 0.741712 -8.01045 29.2566 54.2698 21.5461 11.1756 13.9046 -9.20238 92.2808 -10.6722 7.75166 30.0688 -15.1466 -14.7721 -8.94491 3.81117 33.1973 3.95771 7.03789 9.62367 6.01086 1.64048 -21.9851 1.26967 -26.9656 39.7721 9.37405 -1.34737 10.6823 3.40629 
